:SAMPLES-PER-SECOND 30
:FULLY-SPECIFIED
:DEGREES
1844
root  63.2191 34.4601 4.22633 171.074 48.2124 174.387
RightUpLeg  -27.288 14.5201 -8.64518
RightLeg  55.0723 2.60045 3.60532
RightFoot  -22.3213 -0.314839 -1.69355
RightToes  -1.81608e-008 0 -3.6325e-017
Spine  27.024 -2.64143 6.6081
Spine1  -3.67947 -0.838831 -3.19739
HEad  -38.4473 22.1268 -22.4515
LeftShoulder1  0.364013 2.31283 -24.2978
LeftArm  -15.9863 -2.52299 -47.4853
LeftForeArm  17.5487 -72.0544 -36.9294
LeftHand  -0.0469067 5.71365 -4.21198
RightShoulder  0.0654634 -3.18808 15.5626
RightArm  -7.87295 23.5665 28.2955
RightForeArm  4.79063 73.5855 45.1902
RightHand  0.0109411 -0.518266 0.320493
LeftUpLeg  -17.1877 12.5651 18.5899
LeftLeg  5.60388 -17.3596 1.7288
LeftFoot  1.61287 2.92469 -25.446
LeftToes  1.81866e-011 -6.13092e-011 2.52013e-011
1845
root  63.4062 34.3381 5.07605 170.203 42.6637 173.676
RightUpLeg  -26.9289 9.15043 -8.82963
RightLeg  56.3102 2.16124 3.06337
RightFoot  -22.4594 -0.385543 -2.40165
RightToes  -1.81608e-008 0 -3.6325e-017
Spine  27.9015 -2.68072 7.40353
Spine1  -3.78087 -0.479881 -4.18816
HEad  -37.3813 24.9082 -23.4712
LeftShoulder1  0.370732 2.29095 -24.2909
LeftArm  -16.0512 -1.57918 -48.5054
LeftForeArm  18.3028 -72.3469 -37.6816
LeftHand  -0.0534899 6.01646 -3.1613
RightShoulder  0.0773901 -3.13125 15.2462
RightArm  -8.19565 23.2633 27.571
RightForeArm  5.50737 73.9909 46.9114
RightHand  -0.0191549 -0.706223 -0.3846
LeftUpLeg  -18.0386 12.4975 17.1028
LeftLeg  3.06814 -11.8236 2.3617
LeftFoot  0.660516 2.19141 -20.6585
LeftToes  1.81866e-011 -6.13092e-011 2.52013e-011
1846
root  63.679 34.2605 5.94233 170.125 37.7336 173.34
RightUpLeg  -27.0945 4.00982 -8.814
RightLeg  57.0416 1.94516 2.79496
RightFoot  -22.3226 -0.437012 -2.97331
RightToes  -1.81608e-008 0 -3.6325e-017
Spine  28.3753 -2.26941 7.46509
Spine1  -3.80999 0.0789486 -4.46549
HEad  -37.9957 28.5435 -26.0141
LeftShoulder1  0.254847 2.66838 -24.2277
LeftArm  -15.5268 -1.58952 -49.0092
LeftForeArm  17.0631 -72.0995 -37.1635
LeftHand  -0.0354961 5.43703 -3.34487
RightShoulder  0.0531146 -3.23983 15.2173
RightArm  -8.34059 23.4739 26.8693
RightForeArm  6.49421 74.2165 47.8139
RightHand  -0.00900285 -0.480839 -0.153476
LeftUpLeg  -18.3088 13.3929 16.6824
LeftLeg  0.376107 -0.311843 1.56777
LeftFoot  -0.680814 1.43116 -15.1913
LeftToes  1.81866e-011 -6.13092e-011 2.52013e-011
1847
root  63.9587 34.2264 6.69492 170.537 32.1795 173.483
RightUpLeg  -26.9503 -1.81649 -8.77237
RightLeg  57.2936 1.83659 2.63943
RightFoot  -22.2985 -0.435593 -2.96793
RightToes  -1.81608e-008 0 -3.6325e-017
Spine  28.5413 -2.14709 7.38118
Spine1  -4.00429 0.105594 -3.79257
HEad  -38.9366 31.3136 -28.5358
LeftShoulder1  0.194264 2.86918 -24.3338
LeftArm  -15.4025 -1.87472 -49.7091
LeftForeArm  16.7805 -71.8264 -36.4044
LeftHand  -0.0783449 6.5923 -3.66427
RightShoulder  0.11196 -2.96315 14.6658
RightArm  -8.83587 23.1463 26.6777
RightForeArm  7.33773 74.3774 48.4693
RightHand  -0.0205738 -0.662438 -0.382298
LeftUpLeg  -18.8585 13.9012 16.1331
LeftLeg  -0.891184 10.6958 0.510909
LeftFoot  -1.47255 1.04628 -12.0726
LeftToes  1.81866e-011 -6.13092e-011 2.52013e-011
1848
root  64.2193 34.2265 7.36708 171.009 26.4169 173.889
RightUpLeg  -26.643 -7.10522 -8.64585
RightLeg  57.374 1.41274 1.93424
RightFoot  -22.1057 -0.463083 -3.32794
RightToes  -1.81608e-008 0 -3.6325e-017
Spine  28.5207 -2.08068 7.80923
Spine1  -4.02303 0.174633 -3.2432
HEad  -39.9487 32.992 -31.2328
LeftShoulder1  0.189666 2.88934 -24.5973
LeftArm  -14.6138 -2.8804 -49.8731
LeftForeArm  14.8424 -71.2414 -35.1199
LeftHand  -0.0676663 6.548 -2.82781
RightShoulder  0.105851 -2.98457 14.362
RightArm  -9.81185 21.7285 26.4292
RightForeArm  10.5135 74.9169 50.7467
RightHand  0.0266428 -1.06215 0.863878
LeftUpLeg  -19.5202 13.7393 15.5939
LeftLeg  -0.138805 11.5504 0.443484
LeftFoot  0.655855 1.21765 -11.5839
LeftToes  1.81866e-011 -6.13092e-011 2.52013e-011
1849
root  64.5048 34.2886 7.90745 171.68 21.3648 174.218
RightUpLeg  -26.4324 -11.1568 -8.43233
RightLeg  57.0005 0.776463 0.847028
RightFoot  -21.8818 -0.467074 -3.45485
RightToes  -1.81608e-008 0 -3.6325e-017
Spine  28.4184 -1.94938 7.96257
Spine1  -4.42938 0.230913 -2.88343
HEad  -41.2809 33.8546 -33.5054
LeftShoulder1  0.198895 2.85883 -24.5004
LeftArm  -14.2487 -3.33365 -49.8456
LeftForeArm  14.7328 -71.1508 -34.9004
LeftHand  -0.0579806 6.26362 -2.73118
RightShoulder  0.0716268 -3.15536 15.1271
RightArm  -10.0211 20.8538 26.0322
RightForeArm  11.9595 75.317 52.9214
RightHand  0.00366327 -1.16923 0.278753
LeftUpLeg  -19.423 13.9873 15.6977
LeftLeg  0.88248 6.11837 0.206045
LeftFoot  2.16928 1.62897 -13.7567
LeftToes  1.81866e-011 -6.13092e-011 2.52013e-011
1850
root  64.7588 34.4016 8.37742 172.42 16.6523 174.081
RightUpLeg  -26.4919 -14.1823 -8.58129
RightLeg  56.4325 -0.156295 -0.692979
RightFoot  -21.6312 -0.423535 -3.09088
RightToes  -1.81608e-008 0 -3.6325e-017
Spine  28.1535 -2.0486 8.02242
Spine1  -4.98555 0.135137 -3.42059
HEad  -42.5566 34.9435 -35.0383
LeftShoulder1  0.144745 3.02068 -23.6633
LeftArm  -14.3075 -3.49752 -49.9166
LeftForeArm  15.3844 -71.3062 -35.1964
LeftHand  -0.0671865 6.3318 -3.51835
RightShoulder  0.0486575 -3.26954 16.2353
RightArm  -9.87794 20.1875 26.0757
RightForeArm  14.616 75.6923 54.871
RightHand  0.00123853 -1.2644 0.235766
LeftUpLeg  -18.5239 13.8991 15.8484
LeftLeg  0.935114 1.58908 0.11192
LeftFoot  5.1726 2.37501 -16.4938
LeftToes  1.81866e-011 -6.13092e-011 2.52013e-011
1851
root  64.9696 34.5475 8.75204 173.556 11.6546 174.441
RightUpLeg  -26.6526 -17.56 -8.3253
RightLeg  55.7679 -1.18643 -2.30947
RightFoot  -20.8398 -0.468452 -3.93352
RightToes  -1.81608e-008 0 -3.6325e-017
Spine  27.0103 -2.05045 8.16303
Spine1  -4.86258 -0.0701397 -2.73987
HEad  -43.5732 35.4588 -37.349
LeftShoulder1  0.168794 2.94518 -23.8366
LeftArm  -14.5386 -3.93961 -49.6909
LeftForeArm  15.3815 -71.178 -34.8503
LeftHand  -0.0835469 6.62795 -4.09353
RightShoulder  0.0368489 -3.32114 16.3416
RightArm  -9.8123 19.2747 26.3084
RightForeArm  17.1902 76.0901 57.3108
RightHand  -0.00819117 -0.875592 -0.0904236
LeftUpLeg  -17.8521 14.3565 16.5867
LeftLeg  1.6818 0.505138 0.000966574
LeftFoot  7.65239 3.02376 -18.2319
LeftToes  1.81866e-011 -6.13092e-011 2.52013e-011
1852
root  65.184 34.7049 9.1081 174.563 6.84337 174.256
RightUpLeg  -26.7598 -20.3316 -8.53869
RightLeg  54.9695 -2.29053 -3.93477
RightFoot  -20.3805 -0.415011 -3.50136
RightToes  -1.81608e-008 0 -3.6325e-017
Spine  26.1801 -2.07301 7.47273
Spine1  -5.23085 -0.334491 -2.62977
HEad  -43.1783 35.4604 -37.7217
LeftShoulder1  0.0799108 3.23185 -23.1514
LeftArm  -14.2361 -3.59797 -49.8028
LeftForeArm  15.8595 -71.4163 -35.4074
LeftHand  -0.0719605 6.057 -5.61561
RightShoulder  0.0715547 -3.17089 16.3449
RightArm  -9.37904 18.1918 26.6735
RightForeArm  19.7738 76.4474 59.801
RightHand  -0.0127841 -0.880086 -0.207004
LeftUpLeg  -16.9117 14.7167 17.1747
LeftLeg  2.52328 3.42376 0.227556
LeftFoot  8.83769 3.28234 -18.6227
LeftToes  1.81866e-011 -6.13092e-011 2.52013e-011
1853
root  65.3454 34.8633 9.42925 175.238 1.60017 174.023
RightUpLeg  -26.3409 -23.5156 -9.18876
RightLeg  54.2913 -3.34311 -5.39964
RightFoot  -19.9022 -0.357207 -2.97959
RightToes  -1.81608e-008 0 -3.6325e-017
Spine  25.4444 -2.09516 6.45769
Spine1  -5.11116 -0.666081 -2.11197
HEad  -42.1369 35.6305 -36.6987
LeftShoulder1  0.139918 3.02765 -23.0594
LeftArm  -14.0927 -3.80133 -49.7478
LeftForeArm  16.1228 -71.5209 -35.6484
LeftHand  -0.0610992 6.26661 -3.12444
RightShoulder  0.0392675 -3.31053 16.3108
RightArm  -8.95363 17.4214 26.2045
RightForeArm  22.7511 76.8357 63.0082
RightHand  -0.0102625 -0.962284 -0.134959
LeftUpLeg  -15.801 14.6187 17.6688
LeftLeg  3.12575 4.4512 0.898589
LeftFoot  9.22623 2.91922 -16.3047
LeftToes  1.81866e-011 -6.13092e-011 2.52013e-011
1854
root  65.4761 34.9728 9.70198 176.016 -3.45094 173.928
RightUpLeg  -26.1752 -26.432 -9.60313
RightLeg  53.9348 -4.60275 -7.16205
RightFoot  -19.4269 -0.357343 -3.19436
RightToes  -1.81608e-008 0 -3.6325e-017
Spine  25.1166 -2.05889 5.05843
Spine1  -5.60275 -1.11129 -0.783386
HEad  -40.8317 36.7079 -35.5025
LeftShoulder1  0.0918737 3.19501 -23.3806
LeftArm  -13.8895 -3.98402 -49.0069
LeftForeArm  16.2333 -71.4629 -35.467
LeftHand  -0.0407777 5.55082 -3.52464
RightShoulder  0.0553925 -3.23452 15.6307
RightArm  -8.56638 16.4439 26.4172
RightForeArm  26.2146 77.1841 66.2477
RightHand  -0.0148667 -1.11755 -0.226281
LeftUpLeg  -14.6619 14.9206 18.6966
LeftLeg  3.41958 3.08445 1.18953
LeftFoot  9.17886 2.67353 -15.0107
LeftToes  1.81866e-011 -6.13092e-011 2.52013e-011
1855
root  65.525 35.0355 9.93461 176.795 -8.29178 174.221
RightUpLeg  -25.9949 -29.3493 -9.68566
RightLeg  53.6586 -5.67811 -8.62683
RightFoot  -19.0257 -0.322682 -2.88929
RightToes  -1.81608e-008 0 -3.6325e-017
Spine  24.6971 -2.27229 4.78556
Spine1  -5.96087 -1.41308 -0.63808
HEad  -38.6409 35.9863 -34.9069
LeftShoulder1  0.109491 3.12754 -22.8728
LeftArm  -13.9309 -3.78219 -49.0755
LeftForeArm  17.197 -71.7473 -36.0823
LeftHand  -0.0785358 6.28091 -5.04481
RightShoulder  0.0503384 -3.2515 15.6269
RightArm  -8.40044 15.6464 26.1068
RightForeArm  28.9428 77.4368 69.1946
RightHand  0.000830563 -1.23079 0.249158
LeftUpLeg  -13.8792 15.8302 20.3483
LeftLeg  4.24815 1.05777 1.06905
LeftFoot  9.06324 2.72901 -15.3933
LeftToes  1.81866e-011 -6.13092e-011 2.52013e-011
